<mxfile host="app.diagrams.net" agent="Mozilla/5.0 (X11; Linux x86_64) AppleWebKit/537.36 (KHTML, like Gecko) Chrome/129.0.0.0 Safari/537.36" version="24.7.17">
  <diagram name="Página-1" id="QCrCfaFw36UPNGJQG-pu">
    <mxGraphModel grid="1" page="1" gridSize="10" guides="1" tooltips="1" connect="1" arrows="1" fold="1" pageScale="1" pageWidth="827" pageHeight="1169" background="none" math="0" shadow="0">
      <root>
        <mxCell id="0" />
        <mxCell id="1" parent="0" />
        <mxCell id="vkqAU-G4HcXmrahT7UT--8" value="NombreComp" style="ellipse;whiteSpace=wrap;html=1;movable=1;resizable=1;rotatable=1;deletable=1;editable=1;locked=0;connectable=1;" vertex="1" parent="1">
          <mxGeometry x="160" y="-90" width="90" height="40" as="geometry" />
        </mxCell>
        <mxCell id="vkqAU-G4HcXmrahT7UT--10" value="Nombre" style="ellipse;whiteSpace=wrap;html=1;movable=1;resizable=1;rotatable=1;deletable=1;editable=1;locked=0;connectable=1;" vertex="1" parent="1">
          <mxGeometry x="100" y="-40" width="80" height="40" as="geometry" />
        </mxCell>
        <mxCell id="f1zBCqjC82hzsTpn4rTU-1" value="Primer Apellido" style="ellipse;whiteSpace=wrap;html=1;movable=1;resizable=1;rotatable=1;deletable=1;editable=1;locked=0;connectable=1;" vertex="1" parent="1">
          <mxGeometry x="30" y="-90" width="80" height="40" as="geometry" />
        </mxCell>
        <mxCell id="f1zBCqjC82hzsTpn4rTU-2" value="Segundo Apellido" style="ellipse;whiteSpace=wrap;html=1;movable=1;resizable=1;rotatable=1;deletable=1;editable=1;locked=0;connectable=1;" vertex="1" parent="1">
          <mxGeometry x="90" y="-140" width="80" height="40" as="geometry" />
        </mxCell>
        <mxCell id="f1zBCqjC82hzsTpn4rTU-3" value="Nacionalidad" style="ellipse;whiteSpace=wrap;html=1;movable=1;resizable=1;rotatable=1;deletable=1;editable=1;locked=0;connectable=1;" vertex="1" parent="1">
          <mxGeometry x="180" y="-180" width="80" height="40" as="geometry" />
        </mxCell>
        <mxCell id="f1zBCqjC82hzsTpn4rTU-4" value="FechaNacimiento" style="ellipse;whiteSpace=wrap;html=1;movable=1;resizable=1;rotatable=1;deletable=1;editable=1;locked=0;connectable=1;" vertex="1" parent="1">
          <mxGeometry x="220" y="-230" width="120" height="40" as="geometry" />
        </mxCell>
        <mxCell id="f1zBCqjC82hzsTpn4rTU-11" value="d" style="strokeWidth=2;html=1;shape=mxgraph.flowchart.merge_or_storage;whiteSpace=wrap;" vertex="1" parent="1">
          <mxGeometry x="287.5" y="-40" width="65" height="40" as="geometry" />
        </mxCell>
        <mxCell id="f1zBCqjC82hzsTpn4rTU-13" value="Persona" style="whiteSpace=wrap;html=1;align=center;fontStyle=1;fillColor=#dae8fc;strokeColor=#6c8ebf;" vertex="1" parent="1">
          <mxGeometry x="270" y="-130" width="100" height="40" as="geometry" />
        </mxCell>
        <mxCell id="f1zBCqjC82hzsTpn4rTU-14" value="Atleta" style="whiteSpace=wrap;html=1;align=center;fontStyle=1;fillColor=#DAE8FC;strokeColor=#6c8ebf;" vertex="1" parent="1">
          <mxGeometry x="-260" y="90" width="100" height="40" as="geometry" />
        </mxCell>
        <mxCell id="f1zBCqjC82hzsTpn4rTU-15" value="Entrenador" style="whiteSpace=wrap;html=1;align=center;fontStyle=1;fillColor=#dae8fc;strokeColor=#6c8ebf;" vertex="1" parent="1">
          <mxGeometry x="260" y="90" width="100" height="40" as="geometry" />
        </mxCell>
        <mxCell id="f1zBCqjC82hzsTpn4rTU-16" value="Árbitro" style="whiteSpace=wrap;html=1;align=center;fillColor=#dae8fc;strokeColor=#6c8ebf;" vertex="1" parent="1">
          <mxGeometry x="600" y="200" width="100" height="40" as="geometry" />
        </mxCell>
        <mxCell id="f1zBCqjC82hzsTpn4rTU-17" value="Disciplina" style="whiteSpace=wrap;html=1;align=center;fontStyle=1;fillColor=#dae8fc;strokeColor=#6c8ebf;" vertex="1" parent="1">
          <mxGeometry x="260" y="410" width="100" height="40" as="geometry" />
        </mxCell>
        <mxCell id="f1zBCqjC82hzsTpn4rTU-27" value="" style="endArrow=none;html=1;rounded=0;entryX=0;entryY=0.5;entryDx=0;entryDy=0;" edge="1" parent="1" source="f1zBCqjC82hzsTpn4rTU-13" target="f1zBCqjC82hzsTpn4rTU-51">
          <mxGeometry relative="1" as="geometry">
            <mxPoint x="300" y="-30" as="sourcePoint" />
            <mxPoint x="484.8544793961719" y="-165.77443213654578" as="targetPoint" />
          </mxGeometry>
        </mxCell>
        <mxCell id="f1zBCqjC82hzsTpn4rTU-28" value="" style="endArrow=none;html=1;rounded=0;exitX=0.5;exitY=1;exitDx=0;exitDy=0;" edge="1" parent="1" source="f1zBCqjC82hzsTpn4rTU-3" target="f1zBCqjC82hzsTpn4rTU-13">
          <mxGeometry relative="1" as="geometry">
            <mxPoint x="300" y="-30" as="sourcePoint" />
            <mxPoint x="330" y="-140" as="targetPoint" />
          </mxGeometry>
        </mxCell>
        <mxCell id="f1zBCqjC82hzsTpn4rTU-29" value="" style="endArrow=none;html=1;rounded=0;" edge="1" parent="1" source="f1zBCqjC82hzsTpn4rTU-13" target="f1zBCqjC82hzsTpn4rTU-4">
          <mxGeometry relative="1" as="geometry">
            <mxPoint x="240" y="-211.18" as="sourcePoint" />
            <mxPoint x="400" y="-211.18" as="targetPoint" />
          </mxGeometry>
        </mxCell>
        <mxCell id="f1zBCqjC82hzsTpn4rTU-31" value="" style="endArrow=none;html=1;rounded=0;" edge="1" parent="1" source="f1zBCqjC82hzsTpn4rTU-13" target="vkqAU-G4HcXmrahT7UT--8">
          <mxGeometry relative="1" as="geometry">
            <mxPoint x="300" y="-30" as="sourcePoint" />
            <mxPoint x="460" y="-30" as="targetPoint" />
          </mxGeometry>
        </mxCell>
        <mxCell id="f1zBCqjC82hzsTpn4rTU-32" value="" style="endArrow=none;html=1;rounded=0;" edge="1" parent="1" source="vkqAU-G4HcXmrahT7UT--8" target="f1zBCqjC82hzsTpn4rTU-2">
          <mxGeometry relative="1" as="geometry">
            <mxPoint x="300" y="-30" as="sourcePoint" />
            <mxPoint x="460" y="-30" as="targetPoint" />
          </mxGeometry>
        </mxCell>
        <mxCell id="f1zBCqjC82hzsTpn4rTU-33" value="" style="endArrow=none;html=1;rounded=0;" edge="1" parent="1" source="vkqAU-G4HcXmrahT7UT--8" target="f1zBCqjC82hzsTpn4rTU-1">
          <mxGeometry relative="1" as="geometry">
            <mxPoint x="300" y="-30" as="sourcePoint" />
            <mxPoint x="460" y="-30" as="targetPoint" />
          </mxGeometry>
        </mxCell>
        <mxCell id="f1zBCqjC82hzsTpn4rTU-34" value="" style="endArrow=none;html=1;rounded=0;" edge="1" parent="1" source="vkqAU-G4HcXmrahT7UT--8" target="vkqAU-G4HcXmrahT7UT--10">
          <mxGeometry relative="1" as="geometry">
            <mxPoint x="300" y="-30" as="sourcePoint" />
            <mxPoint x="460" y="-30" as="targetPoint" />
          </mxGeometry>
        </mxCell>
        <mxCell id="f1zBCqjC82hzsTpn4rTU-39" value="" style="shape=link;html=1;rounded=0;" edge="1" parent="1" source="f1zBCqjC82hzsTpn4rTU-11" target="f1zBCqjC82hzsTpn4rTU-13">
          <mxGeometry width="100" relative="1" as="geometry">
            <mxPoint x="320" y="-30" as="sourcePoint" />
            <mxPoint x="430" y="-30" as="targetPoint" />
          </mxGeometry>
        </mxCell>
        <mxCell id="f1zBCqjC82hzsTpn4rTU-40" value="" style="endArrow=none;html=1;rounded=0;exitX=0.208;exitY=0.525;exitDx=0;exitDy=0;exitPerimeter=0;" edge="1" parent="1" source="f1zBCqjC82hzsTpn4rTU-11" target="f1zBCqjC82hzsTpn4rTU-14">
          <mxGeometry width="50" height="50" relative="1" as="geometry">
            <mxPoint x="340" y="-60" as="sourcePoint" />
            <mxPoint x="240" y="-20" as="targetPoint" />
          </mxGeometry>
        </mxCell>
        <mxCell id="f1zBCqjC82hzsTpn4rTU-41" value="" style="endArrow=none;html=1;rounded=0;" edge="1" parent="1" source="f1zBCqjC82hzsTpn4rTU-11" target="f1zBCqjC82hzsTpn4rTU-15">
          <mxGeometry width="50" height="50" relative="1" as="geometry">
            <mxPoint x="347.76880699088156" y="-129.72000000000003" as="sourcePoint" />
            <mxPoint x="209.76880699088156" y="-44.72000000000003" as="targetPoint" />
          </mxGeometry>
        </mxCell>
        <mxCell id="f1zBCqjC82hzsTpn4rTU-42" value="" style="endArrow=none;html=1;rounded=0;entryX=0.757;entryY=0.441;entryDx=0;entryDy=0;entryPerimeter=0;" edge="1" parent="1" source="f1zBCqjC82hzsTpn4rTU-16" target="f1zBCqjC82hzsTpn4rTU-11">
          <mxGeometry width="50" height="50" relative="1" as="geometry">
            <mxPoint x="347.76880699088156" y="-129.72000000000003" as="sourcePoint" />
            <mxPoint x="209.76880699088156" y="-44.72000000000003" as="targetPoint" />
            <Array as="points" />
          </mxGeometry>
        </mxCell>
        <mxCell id="f1zBCqjC82hzsTpn4rTU-46" value="Género" style="ellipse;whiteSpace=wrap;html=1;align=center;" vertex="1" parent="1">
          <mxGeometry x="350" y="-220" width="100" height="40" as="geometry" />
        </mxCell>
        <mxCell id="f1zBCqjC82hzsTpn4rTU-48" value="" style="endArrow=none;html=1;rounded=0;" edge="1" parent="1" source="f1zBCqjC82hzsTpn4rTU-46" target="f1zBCqjC82hzsTpn4rTU-13">
          <mxGeometry width="50" height="50" relative="1" as="geometry">
            <mxPoint x="407.76880699088156" y="-79.72000000000003" as="sourcePoint" />
            <mxPoint x="269.76880699088156" y="5.279999999999973" as="targetPoint" />
          </mxGeometry>
        </mxCell>
        <mxCell id="f1zBCqjC82hzsTpn4rTU-49" value="Supervisa" style="shape=rhombus;perimeter=rhombusPerimeter;whiteSpace=wrap;html=1;align=center;fillColor=#d5e8d4;strokeColor=#82b366;" vertex="1" parent="1">
          <mxGeometry x="420" y="320" width="120" height="60" as="geometry" />
        </mxCell>
        <mxCell id="f1zBCqjC82hzsTpn4rTU-51" value="Teléfono" style="ellipse;shape=doubleEllipse;margin=3;whiteSpace=wrap;html=1;align=center;" vertex="1" parent="1">
          <mxGeometry x="410" y="-170" width="100" height="40" as="geometry" />
        </mxCell>
        <mxCell id="f1zBCqjC82hzsTpn4rTU-53" value="Localidad" style="shape=ext;margin=3;double=1;whiteSpace=wrap;html=1;align=center;fillColor=#dae8fc;strokeColor=#6c8ebf;" vertex="1" parent="1">
          <mxGeometry x="260" y="620" width="100" height="40" as="geometry" />
        </mxCell>
        <mxCell id="f1zBCqjC82hzsTpn4rTU-55" value="Pertenece" style="shape=rhombus;perimeter=rhombusPerimeter;whiteSpace=wrap;html=1;align=center;fillColor=#d5e8d4;strokeColor=#82b366;" vertex="1" parent="1">
          <mxGeometry x="250" y="230" width="120" height="60" as="geometry" />
        </mxCell>
        <mxCell id="f1zBCqjC82hzsTpn4rTU-60" value="" style="endArrow=classic;html=1;rounded=0;entryX=0;entryY=0.5;entryDx=0;entryDy=0;" edge="1" parent="1" source="f1zBCqjC82hzsTpn4rTU-14" target="f1zBCqjC82hzsTpn4rTU-15">
          <mxGeometry width="50" height="50" relative="1" as="geometry">
            <mxPoint x="310" y="180" as="sourcePoint" />
            <mxPoint x="360" y="130" as="targetPoint" />
          </mxGeometry>
        </mxCell>
        <mxCell id="f1zBCqjC82hzsTpn4rTU-43" value="Entrenar" style="shape=rhombus;perimeter=rhombusPerimeter;whiteSpace=wrap;html=1;align=center;fillColor=#d5e8d4;strokeColor=#82b366;" vertex="1" parent="1">
          <mxGeometry x="-10" y="80" width="120" height="60" as="geometry" />
        </mxCell>
        <mxCell id="f1zBCqjC82hzsTpn4rTU-61" value="" style="shape=link;html=1;rounded=0;" edge="1" parent="1" source="f1zBCqjC82hzsTpn4rTU-55" target="f1zBCqjC82hzsTpn4rTU-15">
          <mxGeometry width="100" relative="1" as="geometry">
            <mxPoint x="280" y="270" as="sourcePoint" />
            <mxPoint x="380" y="270" as="targetPoint" />
          </mxGeometry>
        </mxCell>
        <mxCell id="f1zBCqjC82hzsTpn4rTU-62" value="" style="endArrow=classic;html=1;rounded=0;" edge="1" parent="1" target="f1zBCqjC82hzsTpn4rTU-17">
          <mxGeometry width="50" height="50" relative="1" as="geometry">
            <mxPoint x="310" y="290" as="sourcePoint" />
            <mxPoint x="360" y="240" as="targetPoint" />
          </mxGeometry>
        </mxCell>
        <mxCell id="f1zBCqjC82hzsTpn4rTU-65" value="" style="shape=link;endArrow=none;html=1;rounded=0;entryX=1;entryY=1;entryDx=0;entryDy=0;exitX=0;exitY=0.5;exitDx=0;exitDy=0;endFill=0;" edge="1" parent="1" source="f1zBCqjC82hzsTpn4rTU-66" target="f1zBCqjC82hzsTpn4rTU-14">
          <mxGeometry width="50" height="50" relative="1" as="geometry">
            <mxPoint x="20" y="240" as="sourcePoint" />
            <mxPoint x="-90" y="190" as="targetPoint" />
          </mxGeometry>
        </mxCell>
        <mxCell id="f1zBCqjC82hzsTpn4rTU-66" value="Participa" style="shape=rhombus;perimeter=rhombusPerimeter;whiteSpace=wrap;html=1;align=center;fillColor=#d5e8d4;strokeColor=#82b366;" vertex="1" parent="1">
          <mxGeometry y="230" width="120" height="60" as="geometry" />
        </mxCell>
        <mxCell id="f1zBCqjC82hzsTpn4rTU-68" value="" style="shape=link;endArrow=classic;html=1;rounded=0;entryX=0;entryY=0.25;entryDx=0;entryDy=0;exitX=1;exitY=0.5;exitDx=0;exitDy=0;" edge="1" parent="1" source="f1zBCqjC82hzsTpn4rTU-66">
          <mxGeometry width="50" height="50" relative="1" as="geometry">
            <mxPoint x="130" y="250" as="sourcePoint" />
            <mxPoint x="270" y="410" as="targetPoint" />
          </mxGeometry>
        </mxCell>
        <mxCell id="f1zBCqjC82hzsTpn4rTU-69" value="&lt;span&gt;NombreDisciplina&lt;/span&gt;" style="ellipse;whiteSpace=wrap;html=1;align=center;fontStyle=0" vertex="1" parent="1">
          <mxGeometry x="530" y="470" width="110" height="40" as="geometry" />
        </mxCell>
        <mxCell id="f1zBCqjC82hzsTpn4rTU-72" value="Categoría" style="ellipse;whiteSpace=wrap;html=1;align=center;" vertex="1" parent="1">
          <mxGeometry x="530" y="520" width="100" height="40" as="geometry" />
        </mxCell>
        <mxCell id="f1zBCqjC82hzsTpn4rTU-74" value="" style="endArrow=classic;html=1;rounded=0;shape=flexArrow;exitX=0;exitY=0.5;exitDx=0;exitDy=0;" edge="1" parent="1" source="f1zBCqjC82hzsTpn4rTU-49" target="f1zBCqjC82hzsTpn4rTU-17">
          <mxGeometry width="50" height="50" relative="1" as="geometry">
            <mxPoint x="310" y="410" as="sourcePoint" />
            <mxPoint x="360" y="360" as="targetPoint" />
          </mxGeometry>
        </mxCell>
        <mxCell id="f1zBCqjC82hzsTpn4rTU-75" value="" style="endArrow=none;html=1;rounded=0;" edge="1" parent="1" source="f1zBCqjC82hzsTpn4rTU-17" target="f1zBCqjC82hzsTpn4rTU-72">
          <mxGeometry width="50" height="50" relative="1" as="geometry">
            <mxPoint x="397.76880699088156" y="460.28" as="sourcePoint" />
            <mxPoint x="259.76880699088156" y="545.28" as="targetPoint" />
          </mxGeometry>
        </mxCell>
        <mxCell id="f1zBCqjC82hzsTpn4rTU-76" value="" style="endArrow=none;html=1;rounded=0;" edge="1" parent="1" source="f1zBCqjC82hzsTpn4rTU-17" target="f1zBCqjC82hzsTpn4rTU-69">
          <mxGeometry width="50" height="50" relative="1" as="geometry">
            <mxPoint x="397.76880699088156" y="460.28" as="sourcePoint" />
            <mxPoint x="259.76880699088156" y="545.28" as="targetPoint" />
          </mxGeometry>
        </mxCell>
        <mxCell id="f1zBCqjC82hzsTpn4rTU-77" value="" style="endArrow=none;html=1;rounded=0;" edge="1" parent="1" source="f1zBCqjC82hzsTpn4rTU-17">
          <mxGeometry width="50" height="50" relative="1" as="geometry">
            <mxPoint x="397.76880699088156" y="460.28" as="sourcePoint" />
            <mxPoint x="435.6149755527249" y="551.2834246715965" as="targetPoint" />
          </mxGeometry>
        </mxCell>
        <mxCell id="f1zBCqjC82hzsTpn4rTU-80" value="Tipo" style="ellipse;whiteSpace=wrap;html=1;align=center;" vertex="1" parent="1">
          <mxGeometry x="414" y="630" width="100" height="40" as="geometry" />
        </mxCell>
        <mxCell id="f1zBCqjC82hzsTpn4rTU-81" value="IDPersona" style="ellipse;whiteSpace=wrap;html=1;align=center;fontStyle=4;fillColor=#fff2cc;strokeColor=#d6b656;" vertex="1" parent="1">
          <mxGeometry x="380" y="-70" width="100" height="40" as="geometry" />
        </mxCell>
        <mxCell id="f1zBCqjC82hzsTpn4rTU-83" value="" style="endArrow=none;html=1;rounded=0;" edge="1" parent="1" source="f1zBCqjC82hzsTpn4rTU-81" target="f1zBCqjC82hzsTpn4rTU-13">
          <mxGeometry width="50" height="50" relative="1" as="geometry">
            <mxPoint x="407.76880699088156" y="-79.72000000000003" as="sourcePoint" />
            <mxPoint x="269.76880699088156" y="5.279999999999973" as="targetPoint" />
          </mxGeometry>
        </mxCell>
        <mxCell id="f1zBCqjC82hzsTpn4rTU-84" value="Ubicar" style="shape=rhombus;double=1;perimeter=rhombusPerimeter;whiteSpace=wrap;html=1;align=center;fillColor=#d5e8d4;strokeColor=#82b366;" vertex="1" parent="1">
          <mxGeometry x="250" y="510" width="120" height="60" as="geometry" />
        </mxCell>
        <mxCell id="f1zBCqjC82hzsTpn4rTU-85" value="" style="endArrow=none;html=1;rounded=0;entryX=1;entryY=0;entryDx=0;entryDy=0;" edge="1" parent="1" source="f1zBCqjC82hzsTpn4rTU-53" target="mH0adXcuigVSKNQ7jDRi-12">
          <mxGeometry width="50" height="50" relative="1" as="geometry">
            <mxPoint x="397.76880699088156" y="580.28" as="sourcePoint" />
            <mxPoint x="234.9772392408031" y="670.7082248263387" as="targetPoint" />
          </mxGeometry>
        </mxCell>
        <mxCell id="f1zBCqjC82hzsTpn4rTU-87" value="" style="endArrow=none;html=1;rounded=0;" edge="1" parent="1" source="f1zBCqjC82hzsTpn4rTU-80" target="f1zBCqjC82hzsTpn4rTU-53">
          <mxGeometry width="50" height="50" relative="1" as="geometry">
            <mxPoint x="397.76880699088156" y="580.28" as="sourcePoint" />
            <mxPoint x="259.76880699088156" y="665.28" as="targetPoint" />
          </mxGeometry>
        </mxCell>
        <mxCell id="f1zBCqjC82hzsTpn4rTU-88" value="Calle" style="ellipse;whiteSpace=wrap;html=1;align=center;" vertex="1" parent="1">
          <mxGeometry x="140" y="745" width="100" height="40" as="geometry" />
        </mxCell>
        <mxCell id="f1zBCqjC82hzsTpn4rTU-89" value="Número" style="ellipse;whiteSpace=wrap;html=1;align=center;" vertex="1" parent="1">
          <mxGeometry x="220" y="795" width="100" height="40" as="geometry" />
        </mxCell>
        <mxCell id="f1zBCqjC82hzsTpn4rTU-90" value="Ciudad" style="ellipse;whiteSpace=wrap;html=1;align=center;" vertex="1" parent="1">
          <mxGeometry x="330" y="785" width="90" height="40" as="geometry" />
        </mxCell>
        <mxCell id="f1zBCqjC82hzsTpn4rTU-91" value="País" style="ellipse;whiteSpace=wrap;html=1;align=center;" vertex="1" parent="1">
          <mxGeometry x="390" y="745" width="100" height="40" as="geometry" />
        </mxCell>
        <mxCell id="f1zBCqjC82hzsTpn4rTU-92" value="" style="endArrow=none;html=1;rounded=0;exitX=0.031;exitY=0.641;exitDx=0;exitDy=0;exitPerimeter=0;" edge="1" parent="1" source="THKwmLbEmkbz0ED7jqbm-4" target="f1zBCqjC82hzsTpn4rTU-88">
          <mxGeometry width="50" height="50" relative="1" as="geometry">
            <mxPoint x="250" y="720" as="sourcePoint" />
            <mxPoint x="259.76880699088156" y="760.28" as="targetPoint" />
          </mxGeometry>
        </mxCell>
        <mxCell id="f1zBCqjC82hzsTpn4rTU-93" value="" style="endArrow=none;html=1;rounded=0;exitX=0.322;exitY=0.959;exitDx=0;exitDy=0;exitPerimeter=0;" edge="1" parent="1" source="THKwmLbEmkbz0ED7jqbm-4" target="f1zBCqjC82hzsTpn4rTU-89">
          <mxGeometry width="50" height="50" relative="1" as="geometry">
            <mxPoint x="270" y="750" as="sourcePoint" />
            <mxPoint x="259.76880699088156" y="760.28" as="targetPoint" />
          </mxGeometry>
        </mxCell>
        <mxCell id="f1zBCqjC82hzsTpn4rTU-94" value="" style="endArrow=none;html=1;rounded=0;entryX=0.361;entryY=0.017;entryDx=0;entryDy=0;entryPerimeter=0;exitX=0.6;exitY=0.974;exitDx=0;exitDy=0;exitPerimeter=0;" edge="1" parent="1" source="THKwmLbEmkbz0ED7jqbm-4" target="f1zBCqjC82hzsTpn4rTU-90">
          <mxGeometry width="50" height="50" relative="1" as="geometry">
            <mxPoint x="306" y="760" as="sourcePoint" />
            <mxPoint x="259.76880699088156" y="760.28" as="targetPoint" />
          </mxGeometry>
        </mxCell>
        <mxCell id="f1zBCqjC82hzsTpn4rTU-95" value="" style="endArrow=none;html=1;rounded=0;exitX=0;exitY=0.5;exitDx=0;exitDy=0;entryX=1;entryY=1;entryDx=0;entryDy=0;" edge="1" parent="1" source="f1zBCqjC82hzsTpn4rTU-91" target="THKwmLbEmkbz0ED7jqbm-4">
          <mxGeometry width="50" height="50" relative="1" as="geometry">
            <mxPoint x="397.76880699088156" y="675.28" as="sourcePoint" />
            <mxPoint x="340" y="750" as="targetPoint" />
          </mxGeometry>
        </mxCell>
        <mxCell id="f1zBCqjC82hzsTpn4rTU-105" value="Precio" style="ellipse;whiteSpace=wrap;html=1;align=center;" vertex="1" parent="1">
          <mxGeometry x="-310" y="612.5" width="100" height="40" as="geometry" />
        </mxCell>
        <mxCell id="f1zBCqjC82hzsTpn4rTU-106" value="" style="endArrow=none;html=1;rounded=0;entryX=1;entryY=1;entryDx=0;entryDy=0;exitX=0;exitY=0;exitDx=0;exitDy=0;" edge="1" parent="1" source="o7-nBCWL6oB6dUf7lMq--11" target="f1zBCqjC82hzsTpn4rTU-105">
          <mxGeometry relative="1" as="geometry">
            <mxPoint x="-360" y="692.5" as="sourcePoint" />
            <mxPoint x="-200" y="692.5" as="targetPoint" />
          </mxGeometry>
        </mxCell>
        <mxCell id="f1zBCqjC82hzsTpn4rTU-108" value="" style="endArrow=none;html=1;rounded=0;entryX=0.5;entryY=1;entryDx=0;entryDy=0;" edge="1" parent="1" target="o7-nBCWL6oB6dUf7lMq--22">
          <mxGeometry relative="1" as="geometry">
            <mxPoint x="-130" y="690" as="sourcePoint" />
            <mxPoint x="-120" y="767.5" as="targetPoint" />
          </mxGeometry>
        </mxCell>
        <mxCell id="f1zBCqjC82hzsTpn4rTU-109" value="" style="endArrow=none;html=1;rounded=0;exitX=0;exitY=1;exitDx=0;exitDy=0;entryX=1;entryY=0.5;entryDx=0;entryDy=0;" edge="1" parent="1" source="o7-nBCWL6oB6dUf7lMq--11" target="o7-nBCWL6oB6dUf7lMq--28">
          <mxGeometry relative="1" as="geometry">
            <mxPoint x="-360" y="692.5" as="sourcePoint" />
            <mxPoint x="-238.65615782363125" y="756.9176327466052" as="targetPoint" />
          </mxGeometry>
        </mxCell>
        <mxCell id="f1zBCqjC82hzsTpn4rTU-116" value="" style="shape=link;html=1;rounded=0;" edge="1" parent="1" source="f1zBCqjC82hzsTpn4rTU-16" target="f1zBCqjC82hzsTpn4rTU-49">
          <mxGeometry width="100" relative="1" as="geometry">
            <mxPoint y="500" as="sourcePoint" />
            <mxPoint x="550" y="340" as="targetPoint" />
          </mxGeometry>
        </mxCell>
        <mxCell id="fMwPx2uLLaWgfthnUd-A-1" value="Patrocinador" style="whiteSpace=wrap;html=1;align=center;fontStyle=1;fillColor=#dae8fc;strokeColor=#6c8ebf;" vertex="1" parent="1">
          <mxGeometry x="620" y="410" width="100" height="40" as="geometry" />
        </mxCell>
        <mxCell id="cxBHX1C2nxwxFBKa3v35-2" value="aforo" style="ellipse;whiteSpace=wrap;html=1;align=center;" vertex="1" parent="1">
          <mxGeometry x="370" y="690" width="100" height="40" as="geometry" />
        </mxCell>
        <mxCell id="o7-nBCWL6oB6dUf7lMq--1" value="Representa" style="shape=rhombus;perimeter=rhombusPerimeter;whiteSpace=wrap;html=1;align=center;fillColor=#d5e8d4;strokeColor=#82b366;" vertex="1" parent="1">
          <mxGeometry x="-310" y="150" width="120" height="60" as="geometry" />
        </mxCell>
        <mxCell id="cxBHX1C2nxwxFBKa3v35-3" value="Patrocina" style="shape=rhombus;perimeter=rhombusPerimeter;whiteSpace=wrap;html=1;align=center;fillColor=#d5e8d4;strokeColor=#82b366;" vertex="1" parent="1">
          <mxGeometry x="440" y="400" width="120" height="60" as="geometry" />
        </mxCell>
        <mxCell id="o7-nBCWL6oB6dUf7lMq--2" value="" style="endArrow=none;html=1;rounded=0;exitX=0.5;exitY=0;exitDx=0;exitDy=0;entryX=0.25;entryY=1;entryDx=0;entryDy=0;shape=link;" edge="1" parent="1" source="o7-nBCWL6oB6dUf7lMq--1" target="f1zBCqjC82hzsTpn4rTU-14">
          <mxGeometry width="50" height="50" relative="1" as="geometry">
            <mxPoint x="340" y="-55" as="sourcePoint" />
            <mxPoint x="-150" y="104" as="targetPoint" />
          </mxGeometry>
        </mxCell>
        <mxCell id="o7-nBCWL6oB6dUf7lMq--3" value="" style="endArrow=none;html=1;rounded=0;exitX=1;exitY=0.5;exitDx=0;exitDy=0;startArrow=block;startFill=0;shape=flexArrow;entryX=0;entryY=0.5;entryDx=0;entryDy=0;strokeWidth=1;endFill=0;targetPerimeterSpacing=0;endSize=0;startSize=4.529166666666667;shadow=0;flowAnimation=0;fillColor=none;width=4;startWidth=11.25;fontStyle=1" edge="1" parent="1" source="THKwmLbEmkbz0ED7jqbm-10" target="o7-nBCWL6oB6dUf7lMq--1">
          <mxGeometry width="50" height="50" relative="1" as="geometry">
            <mxPoint x="-320" y="30" as="sourcePoint" />
            <mxPoint x="-260" y="40" as="targetPoint" />
          </mxGeometry>
        </mxCell>
        <mxCell id="cxBHX1C2nxwxFBKa3v35-8" value="" style="endArrow=none;html=1;rounded=0;exitX=0;exitY=0;exitDx=0;exitDy=0;entryX=1;entryY=1;entryDx=0;entryDy=0;" edge="1" parent="1" source="cxBHX1C2nxwxFBKa3v35-2" target="f1zBCqjC82hzsTpn4rTU-53">
          <mxGeometry width="50" height="50" relative="1" as="geometry">
            <mxPoint x="416.5" y="703" as="sourcePoint" />
            <mxPoint x="350" y="696" as="targetPoint" />
          </mxGeometry>
        </mxCell>
        <mxCell id="o7-nBCWL6oB6dUf7lMq--6" value="Año" style="ellipse;whiteSpace=wrap;html=1;align=center;" vertex="1" parent="1">
          <mxGeometry x="-300" y="240" width="100" height="40" as="geometry" />
        </mxCell>
        <mxCell id="o7-nBCWL6oB6dUf7lMq--9" value="" style="endArrow=none;html=1;rounded=0;exitX=1;exitY=1;exitDx=0;exitDy=0;entryX=0.5;entryY=0;entryDx=0;entryDy=0;" edge="1" parent="1" source="o7-nBCWL6oB6dUf7lMq--1" target="o7-nBCWL6oB6dUf7lMq--6">
          <mxGeometry width="50" height="50" relative="1" as="geometry">
            <mxPoint x="340" y="-55" as="sourcePoint" />
            <mxPoint x="-150" y="104" as="targetPoint" />
          </mxGeometry>
        </mxCell>
        <mxCell id="o7-nBCWL6oB6dUf7lMq--10" value="" style="endArrow=none;html=1;rounded=0;exitX=0;exitY=1;exitDx=0;exitDy=0;entryX=0.5;entryY=1;entryDx=0;entryDy=0;" edge="1" parent="1" source="THKwmLbEmkbz0ED7jqbm-10" target="THKwmLbEmkbz0ED7jqbm-11">
          <mxGeometry width="50" height="50" relative="1" as="geometry">
            <mxPoint x="-230" y="25" as="sourcePoint" />
            <mxPoint x="-414" y="-30" as="targetPoint" />
          </mxGeometry>
        </mxCell>
        <mxCell id="o7-nBCWL6oB6dUf7lMq--11" value="Evento" style="whiteSpace=wrap;html=1;align=center;fontStyle=1;fillColor=#dae8fc;strokeColor=#6c8ebf;" vertex="1" parent="1">
          <mxGeometry x="-170" y="682.5" width="100" height="40" as="geometry" />
        </mxCell>
        <mxCell id="mH0adXcuigVSKNQ7jDRi-7" value="" style="endArrow=none;html=1;rounded=0;exitX=1;exitY=0.5;exitDx=0;exitDy=0;entryX=0;entryY=0.5;entryDx=0;entryDy=0;startArrow=none;startFill=0;shape=link;" edge="1" parent="1" source="f1zBCqjC82hzsTpn4rTU-17" target="cxBHX1C2nxwxFBKa3v35-3">
          <mxGeometry width="50" height="50" relative="1" as="geometry">
            <mxPoint x="727.9988069908816" y="365" as="sourcePoint" />
            <mxPoint x="589.9988069908816" y="450" as="targetPoint" />
            <Array as="points" />
          </mxGeometry>
        </mxCell>
        <mxCell id="mH0adXcuigVSKNQ7jDRi-8" value="" style="shape=flexArrow;endArrow=classic;html=1;rounded=0;entryX=0.5;entryY=0;entryDx=0;entryDy=0;exitX=0.5;exitY=1;exitDx=0;exitDy=0;" edge="1" parent="1" source="f1zBCqjC82hzsTpn4rTU-84" target="f1zBCqjC82hzsTpn4rTU-53">
          <mxGeometry width="50" height="50" relative="1" as="geometry">
            <mxPoint x="430" y="590" as="sourcePoint" />
            <mxPoint x="480" y="540" as="targetPoint" />
          </mxGeometry>
        </mxCell>
        <mxCell id="mH0adXcuigVSKNQ7jDRi-11" value="" style="shape=flexArrow;endArrow=classic;html=1;rounded=0;entryX=0.5;entryY=1;entryDx=0;entryDy=0;" edge="1" parent="1" target="f1zBCqjC82hzsTpn4rTU-17">
          <mxGeometry width="50" height="50" relative="1" as="geometry">
            <mxPoint x="310" y="510" as="sourcePoint" />
            <mxPoint x="360" y="460" as="targetPoint" />
          </mxGeometry>
        </mxCell>
        <mxCell id="mH0adXcuigVSKNQ7jDRi-12" value="&lt;span style=&quot;border-bottom: 1px dotted&quot;&gt;NombreLocalidad&lt;/span&gt;" style="ellipse;whiteSpace=wrap;html=1;align=center;fillColor=#fff2cc;strokeColor=#d6b656;" vertex="1" parent="1">
          <mxGeometry x="140" y="665" width="100" height="40" as="geometry" />
        </mxCell>
        <mxCell id="SwHU3Nb_tAXpoa3BWpgK-4" style="edgeStyle=orthogonalEdgeStyle;rounded=0;orthogonalLoop=1;jettySize=auto;html=1;exitX=0.5;exitY=1;exitDx=0;exitDy=0;" edge="1" parent="1">
          <mxGeometry relative="1" as="geometry">
            <mxPoint x="-270" y="792.5" as="sourcePoint" />
            <mxPoint x="-270" y="792.5" as="targetPoint" />
          </mxGeometry>
        </mxCell>
        <mxCell id="o7-nBCWL6oB6dUf7lMq--19" value="" style="endArrow=block;html=1;rounded=0;exitX=0;exitY=0.5;exitDx=0;exitDy=0;entryX=0.75;entryY=0;entryDx=0;entryDy=0;shape=link;startArrow=none;startFill=0;" edge="1" parent="1" source="THKwmLbEmkbz0ED7jqbm-37" target="o7-nBCWL6oB6dUf7lMq--11">
          <mxGeometry width="50" height="50" relative="1" as="geometry">
            <mxPoint x="-20" y="590" as="sourcePoint" />
            <mxPoint x="-60" y="713" as="targetPoint" />
          </mxGeometry>
        </mxCell>
        <mxCell id="o7-nBCWL6oB6dUf7lMq--20" value="" style="endArrow=block;html=1;rounded=0;entryX=0;entryY=0.25;entryDx=0;entryDy=0;startArrow=none;startFill=0;exitX=1;exitY=0.5;exitDx=0;exitDy=0;" edge="1" parent="1" source="THKwmLbEmkbz0ED7jqbm-37" target="f1zBCqjC82hzsTpn4rTU-53">
          <mxGeometry width="50" height="50" relative="1" as="geometry">
            <mxPoint x="100" y="590" as="sourcePoint" />
            <mxPoint x="-60" y="713" as="targetPoint" />
          </mxGeometry>
        </mxCell>
        <mxCell id="o7-nBCWL6oB6dUf7lMq--22" value="DuraciónMax" style="ellipse;whiteSpace=wrap;html=1;align=center;" vertex="1" parent="1">
          <mxGeometry x="-190" y="610" width="100" height="40" as="geometry" />
        </mxCell>
        <mxCell id="o7-nBCWL6oB6dUf7lMq--28" value="&lt;span&gt;FechaEvento&lt;/span&gt;" style="ellipse;whiteSpace=wrap;html=1;align=center;fontStyle=0" vertex="1" parent="1">
          <mxGeometry x="-350" y="722.5" width="100" height="40" as="geometry" />
        </mxCell>
        <mxCell id="f1zBCqjC82hzsTpn4rTU-52" value="Correo" style="ellipse;shape=doubleEllipse;margin=3;whiteSpace=wrap;html=1;align=center;" vertex="1" parent="1">
          <mxGeometry x="400" y="-120" width="100" height="40" as="geometry" />
        </mxCell>
        <mxCell id="o7-nBCWL6oB6dUf7lMq--37" value="" style="endArrow=none;html=1;rounded=0;" edge="1" parent="1" source="f1zBCqjC82hzsTpn4rTU-13" target="f1zBCqjC82hzsTpn4rTU-52">
          <mxGeometry relative="1" as="geometry">
            <mxPoint x="370" y="-116" as="sourcePoint" />
            <mxPoint x="541.7642401824942" y="-134.7340873561675" as="targetPoint" />
          </mxGeometry>
        </mxCell>
        <mxCell id="VmTo_N5zFxjS8z5mR34c-2" value="" style="endArrow=none;html=1;rounded=0;entryX=0;entryY=0.5;entryDx=0;entryDy=0;exitX=1;exitY=0.5;exitDx=0;exitDy=0;shape=link;" edge="1" parent="1" source="cxBHX1C2nxwxFBKa3v35-3" target="fMwPx2uLLaWgfthnUd-A-1">
          <mxGeometry width="50" height="50" relative="1" as="geometry">
            <mxPoint x="420" y="460" as="sourcePoint" />
            <mxPoint x="470" y="410" as="targetPoint" />
          </mxGeometry>
        </mxCell>
        <mxCell id="VmTo_N5zFxjS8z5mR34c-5" value="" style="endArrow=none;html=1;rounded=0;exitX=0.996;exitY=0.606;exitDx=0;exitDy=0;exitPerimeter=0;entryX=0.033;entryY=0.578;entryDx=0;entryDy=0;entryPerimeter=0;" edge="1" parent="1" source="f1zBCqjC82hzsTpn4rTU-14" target="f1zBCqjC82hzsTpn4rTU-43">
          <mxGeometry width="50" height="50" relative="1" as="geometry">
            <mxPoint x="-10" y="220" as="sourcePoint" />
            <mxPoint x="40" y="170" as="targetPoint" />
          </mxGeometry>
        </mxCell>
        <mxCell id="VmTo_N5zFxjS8z5mR34c-6" value="" style="endArrow=none;html=1;rounded=0;exitX=0.946;exitY=0.574;exitDx=0;exitDy=0;exitPerimeter=0;entryX=-0.006;entryY=0.635;entryDx=0;entryDy=0;entryPerimeter=0;" edge="1" parent="1" source="f1zBCqjC82hzsTpn4rTU-43" target="f1zBCqjC82hzsTpn4rTU-15">
          <mxGeometry width="50" height="50" relative="1" as="geometry">
            <mxPoint x="76" y="120" as="sourcePoint" />
            <mxPoint x="260" y="121" as="targetPoint" />
          </mxGeometry>
        </mxCell>
        <mxCell id="THKwmLbEmkbz0ED7jqbm-1" value="&lt;span&gt;&lt;u&gt;IDDisciplina&lt;/u&gt;&lt;/span&gt;" style="ellipse;whiteSpace=wrap;html=1;align=center;fontStyle=0;fillColor=#fff2cc;strokeColor=#d6b656;" vertex="1" parent="1">
          <mxGeometry x="514" y="570" width="110" height="40" as="geometry" />
        </mxCell>
        <mxCell id="THKwmLbEmkbz0ED7jqbm-2" value="" style="endArrow=none;html=1;rounded=0;exitX=0.91;exitY=1;exitDx=0;exitDy=0;exitPerimeter=0;entryX=0;entryY=0;entryDx=0;entryDy=0;" edge="1" parent="1" source="f1zBCqjC82hzsTpn4rTU-17" target="THKwmLbEmkbz0ED7jqbm-1">
          <mxGeometry width="50" height="50" relative="1" as="geometry">
            <mxPoint x="369" y="460" as="sourcePoint" />
            <mxPoint x="555" y="536" as="targetPoint" />
          </mxGeometry>
        </mxCell>
        <mxCell id="THKwmLbEmkbz0ED7jqbm-3" value="NumParticipantes" style="ellipse;whiteSpace=wrap;html=1;align=center;dashed=1;" vertex="1" parent="1">
          <mxGeometry x="390" y="550" width="100" height="40" as="geometry" />
        </mxCell>
        <mxCell id="THKwmLbEmkbz0ED7jqbm-4" value="Dirección" style="ellipse;whiteSpace=wrap;html=1;align=center;" vertex="1" parent="1">
          <mxGeometry x="260" y="682.5" width="100" height="40" as="geometry" />
        </mxCell>
        <mxCell id="THKwmLbEmkbz0ED7jqbm-5" value="" style="endArrow=none;html=1;rounded=0;entryX=0.5;entryY=0;entryDx=0;entryDy=0;exitX=0.5;exitY=1;exitDx=0;exitDy=0;" edge="1" parent="1" source="f1zBCqjC82hzsTpn4rTU-53" target="THKwmLbEmkbz0ED7jqbm-4">
          <mxGeometry width="50" height="50" relative="1" as="geometry">
            <mxPoint x="330" y="731" as="sourcePoint" />
            <mxPoint x="372" y="796" as="targetPoint" />
          </mxGeometry>
        </mxCell>
        <mxCell id="THKwmLbEmkbz0ED7jqbm-6" value="Fase" style="ellipse;whiteSpace=wrap;html=1;align=center;" vertex="1" parent="1">
          <mxGeometry x="-230" y="770" width="100" height="40" as="geometry" />
        </mxCell>
        <mxCell id="THKwmLbEmkbz0ED7jqbm-7" value="" style="endArrow=none;html=1;rounded=0;entryX=0.25;entryY=1;entryDx=0;entryDy=0;exitX=0.5;exitY=0;exitDx=0;exitDy=0;" edge="1" parent="1" source="THKwmLbEmkbz0ED7jqbm-6" target="o7-nBCWL6oB6dUf7lMq--11">
          <mxGeometry relative="1" as="geometry">
            <mxPoint x="-15" y="746" as="sourcePoint" />
            <mxPoint x="-60" y="733" as="targetPoint" />
            <Array as="points" />
          </mxGeometry>
        </mxCell>
        <mxCell id="THKwmLbEmkbz0ED7jqbm-8" value="IDEvento" style="ellipse;whiteSpace=wrap;html=1;align=center;fontStyle=4;fillColor=#fff2cc;strokeColor=#d6b656;" vertex="1" parent="1">
          <mxGeometry x="-130" y="810" width="100" height="40" as="geometry" />
        </mxCell>
        <mxCell id="THKwmLbEmkbz0ED7jqbm-9" value="" style="endArrow=none;html=1;rounded=0;entryX=0.75;entryY=1;entryDx=0;entryDy=0;exitX=0.461;exitY=-0.017;exitDx=0;exitDy=0;exitPerimeter=0;" edge="1" parent="1" source="THKwmLbEmkbz0ED7jqbm-8" target="o7-nBCWL6oB6dUf7lMq--11">
          <mxGeometry relative="1" as="geometry">
            <mxPoint x="-170" y="780" as="sourcePoint" />
            <mxPoint x="-135" y="733" as="targetPoint" />
            <Array as="points" />
          </mxGeometry>
        </mxCell>
        <mxCell id="THKwmLbEmkbz0ED7jqbm-10" value="Pais" style="whiteSpace=wrap;html=1;align=center;fontStyle=1;fillColor=#DAE8FC;strokeColor=#6c8ebf;" vertex="1" parent="1">
          <mxGeometry x="-490" y="160" width="100" height="40" as="geometry" />
        </mxCell>
        <mxCell id="THKwmLbEmkbz0ED7jqbm-11" value="NombrePais" style="ellipse;whiteSpace=wrap;html=1;align=center;fontStyle=4;fillColor=#fff2cc;strokeColor=#d6b656;" vertex="1" parent="1">
          <mxGeometry x="-613" y="230" width="100" height="40" as="geometry" />
        </mxCell>
        <mxCell id="THKwmLbEmkbz0ED7jqbm-12" value="&lt;span&gt;&lt;u&gt;NombrePatrocinador&lt;/u&gt;&lt;/span&gt;" style="ellipse;whiteSpace=wrap;html=1;align=center;fontStyle=0;fillColor=#fff2cc;strokeColor=#d6b656;" vertex="1" parent="1">
          <mxGeometry x="690" y="360" width="110" height="40" as="geometry" />
        </mxCell>
        <mxCell id="THKwmLbEmkbz0ED7jqbm-13" value="" style="endArrow=none;html=1;rounded=0;exitX=0.5;exitY=0;exitDx=0;exitDy=0;" edge="1" parent="1" source="fMwPx2uLLaWgfthnUd-A-1" target="THKwmLbEmkbz0ED7jqbm-12">
          <mxGeometry width="50" height="50" relative="1" as="geometry">
            <mxPoint x="369" y="460" as="sourcePoint" />
            <mxPoint x="555" y="536" as="targetPoint" />
          </mxGeometry>
        </mxCell>
        <mxCell id="THKwmLbEmkbz0ED7jqbm-18" value="&lt;span style=&quot;border-bottom: 1px dotted&quot;&gt;TipoMedalla&lt;/span&gt;" style="ellipse;whiteSpace=wrap;html=1;align=center;fillColor=#fff2cc;strokeColor=#d6b656;" vertex="1" parent="1">
          <mxGeometry x="10" y="470" width="100" height="40" as="geometry" />
        </mxCell>
        <mxCell id="THKwmLbEmkbz0ED7jqbm-21" value="" style="endArrow=none;html=1;rounded=0;entryX=1;entryY=1;entryDx=0;entryDy=0;exitX=0.5;exitY=0;exitDx=0;exitDy=0;" edge="1" parent="1" source="THKwmLbEmkbz0ED7jqbm-18" target="THKwmLbEmkbz0ED7jqbm-32">
          <mxGeometry width="50" height="50" relative="1" as="geometry">
            <mxPoint x="-100" y="365" as="sourcePoint" />
            <mxPoint x="-70" y="335" as="targetPoint" />
          </mxGeometry>
        </mxCell>
        <mxCell id="THKwmLbEmkbz0ED7jqbm-32" value="&lt;span style=&quot;font-weight: 700;&quot;&gt;Medalla&lt;/span&gt;" style="shape=ext;margin=3;double=1;whiteSpace=wrap;html=1;align=center;fillColor=#dae8fc;strokeColor=#6c8ebf;" vertex="1" parent="1">
          <mxGeometry x="-120" y="405" width="140" height="50" as="geometry" />
        </mxCell>
        <mxCell id="THKwmLbEmkbz0ED7jqbm-34" value="Concursa" style="shape=rhombus;perimeter=rhombusPerimeter;whiteSpace=wrap;html=1;align=center;fillColor=#d5e8d4;strokeColor=#82b366;" vertex="1" parent="1">
          <mxGeometry x="-720" y="682.5" width="120" height="60" as="geometry" />
        </mxCell>
        <mxCell id="THKwmLbEmkbz0ED7jqbm-35" value="" style="endArrow=none;html=1;rounded=0;entryX=0;entryY=0.5;entryDx=0;entryDy=0;exitX=1;exitY=0.5;exitDx=0;exitDy=0;shape=link;" edge="1" parent="1" source="THKwmLbEmkbz0ED7jqbm-34" target="o7-nBCWL6oB6dUf7lMq--11">
          <mxGeometry width="50" height="50" relative="1" as="geometry">
            <mxPoint x="-150" y="420" as="sourcePoint" />
            <mxPoint x="40" y="420" as="targetPoint" />
          </mxGeometry>
        </mxCell>
        <mxCell id="THKwmLbEmkbz0ED7jqbm-36" value="" style="endArrow=none;html=1;rounded=0;entryX=0.5;entryY=0;entryDx=0;entryDy=0;exitX=0;exitY=0.5;exitDx=0;exitDy=0;shape=link;" edge="1" parent="1" source="f1zBCqjC82hzsTpn4rTU-14" target="THKwmLbEmkbz0ED7jqbm-34">
          <mxGeometry width="50" height="50" relative="1" as="geometry">
            <mxPoint x="-320" y="713" as="sourcePoint" />
            <mxPoint x="-160" y="713" as="targetPoint" />
            <Array as="points">
              <mxPoint x="-660" y="110" />
              <mxPoint x="-660" y="320" />
              <mxPoint x="-660" y="510" />
            </Array>
          </mxGeometry>
        </mxCell>
        <mxCell id="THKwmLbEmkbz0ED7jqbm-37" value="Esta&lt;span style=&quot;white-space: pre;&quot;&gt;&#x9;&lt;/span&gt;" style="shape=rhombus;perimeter=rhombusPerimeter;whiteSpace=wrap;html=1;align=center;fillColor=#d5e8d4;strokeColor=#82b366;" vertex="1" parent="1">
          <mxGeometry x="-10" y="560" width="120" height="60" as="geometry" />
        </mxCell>
        <mxCell id="THKwmLbEmkbz0ED7jqbm-38" value="EntradasV" style="ellipse;whiteSpace=wrap;html=1;align=center;dashed=1;" vertex="1" parent="1">
          <mxGeometry x="-40" y="682.5" width="100" height="40" as="geometry" />
        </mxCell>
        <mxCell id="THKwmLbEmkbz0ED7jqbm-39" value="" style="endArrow=none;html=1;rounded=0;entryX=1;entryY=0.5;entryDx=0;entryDy=0;exitX=0;exitY=0.5;exitDx=0;exitDy=0;" edge="1" parent="1" source="THKwmLbEmkbz0ED7jqbm-38" target="o7-nBCWL6oB6dUf7lMq--11">
          <mxGeometry relative="1" as="geometry">
            <mxPoint x="-25.167781520353856" y="735.78323725773" as="sourcePoint" />
            <mxPoint x="-70" y="723" as="targetPoint" />
            <Array as="points" />
          </mxGeometry>
        </mxCell>
        <mxCell id="THKwmLbEmkbz0ED7jqbm-45" value="" style="endArrow=none;html=1;rounded=0;exitX=0.108;exitY=1.012;exitDx=0;exitDy=0;entryX=1;entryY=0;entryDx=0;entryDy=0;exitPerimeter=0;" edge="1" parent="1" source="o7-nBCWL6oB6dUf7lMq--11">
          <mxGeometry relative="1" as="geometry">
            <mxPoint x="-160" y="733" as="sourcePoint" />
            <mxPoint x="-264.64466094067257" y="775.8578643762689" as="targetPoint" />
          </mxGeometry>
        </mxCell>
        <mxCell id="THKwmLbEmkbz0ED7jqbm-46" value="" style="endArrow=none;html=1;rounded=0;entryX=0.5;entryY=1;entryDx=0;entryDy=0;exitX=0.5;exitY=0;exitDx=0;exitDy=0;" edge="1" parent="1">
          <mxGeometry relative="1" as="geometry">
            <mxPoint x="60" y="920" as="sourcePoint" />
            <mxPoint x="60" y="900" as="targetPoint" />
            <Array as="points" />
          </mxGeometry>
        </mxCell>
        <mxCell id="THKwmLbEmkbz0ED7jqbm-48" value="" style="endArrow=none;html=1;rounded=0;entryX=0.5;entryY=0;entryDx=0;entryDy=0;exitX=0.5;exitY=1;exitDx=0;exitDy=0;shape=link;" edge="1" parent="1">
          <mxGeometry relative="1" as="geometry">
            <mxPoint x="40" y="825" as="sourcePoint" />
            <mxPoint x="60" y="860" as="targetPoint" />
            <Array as="points" />
          </mxGeometry>
        </mxCell>
        <mxCell id="THKwmLbEmkbz0ED7jqbm-50" value="" style="endArrow=none;html=1;rounded=0;entryX=0;entryY=0;entryDx=0;entryDy=0;exitX=1;exitY=1;exitDx=0;exitDy=0;shape=link;" edge="1" parent="1" source="o7-nBCWL6oB6dUf7lMq--11">
          <mxGeometry relative="1" as="geometry">
            <mxPoint x="50" y="835" as="sourcePoint" />
            <mxPoint x="10" y="780" as="targetPoint" />
            <Array as="points" />
          </mxGeometry>
        </mxCell>
        <mxCell id="THKwmLbEmkbz0ED7jqbm-54" value="Tiene" style="shape=rhombus;double=1;perimeter=rhombusPerimeter;whiteSpace=wrap;html=1;align=center;fillColor=#d5e8d4;strokeColor=#82b366;" vertex="1" parent="1">
          <mxGeometry x="70" y="400" width="120" height="60" as="geometry" />
        </mxCell>
        <mxCell id="THKwmLbEmkbz0ED7jqbm-55" value="" style="shape=flexArrow;endArrow=classic;html=1;rounded=0;entryX=0;entryY=0.5;entryDx=0;entryDy=0;exitX=1;exitY=0.5;exitDx=0;exitDy=0;" edge="1" parent="1" source="THKwmLbEmkbz0ED7jqbm-54" target="f1zBCqjC82hzsTpn4rTU-17">
          <mxGeometry width="50" height="50" relative="1" as="geometry">
            <mxPoint x="115" y="300" as="sourcePoint" />
            <mxPoint x="265" y="450" as="targetPoint" />
          </mxGeometry>
        </mxCell>
        <mxCell id="THKwmLbEmkbz0ED7jqbm-56" value="" style="shape=link;endArrow=classic;html=1;rounded=0;entryX=0;entryY=0.5;entryDx=0;entryDy=0;exitX=1;exitY=0.5;exitDx=0;exitDy=0;" edge="1" parent="1" source="THKwmLbEmkbz0ED7jqbm-32" target="THKwmLbEmkbz0ED7jqbm-54">
          <mxGeometry width="50" height="50" relative="1" as="geometry">
            <mxPoint x="140" y="280" as="sourcePoint" />
            <mxPoint x="290" y="430" as="targetPoint" />
          </mxGeometry>
        </mxCell>
        <mxCell id="THKwmLbEmkbz0ED7jqbm-70" value="Gana" style="shape=rhombus;perimeter=rhombusPerimeter;whiteSpace=wrap;html=1;align=center;fillColor=#d5e8d4;strokeColor=#82b366;" vertex="1" parent="1">
          <mxGeometry x="-290" y="340" width="120" height="60" as="geometry" />
        </mxCell>
        <mxCell id="THKwmLbEmkbz0ED7jqbm-73" value="" style="endArrow=block;html=1;rounded=0;exitX=0.467;exitY=0.9;exitDx=0;exitDy=0;entryX=0.5;entryY=0;entryDx=0;entryDy=0;shape=flexArrow;strokeWidth=1;strokeColor=default;exitPerimeter=0;" edge="1" parent="1" source="RpCFNnG55zxHJHf3eyeN-1">
          <mxGeometry width="50" height="50" relative="1" as="geometry">
            <mxPoint x="-400" y="330" as="sourcePoint" />
            <mxPoint x="-400" y="410" as="targetPoint" />
          </mxGeometry>
        </mxCell>
        <mxCell id="AEwHgf2TFvcNtozTObTH-2" value="Medallero" style="whiteSpace=wrap;html=1;align=center;fontStyle=1;fillColor=#dae8fc;strokeColor=#6c8ebf;" vertex="1" parent="1">
          <mxGeometry x="-450" y="410" width="100" height="40" as="geometry" />
        </mxCell>
        <mxCell id="AEwHgf2TFvcNtozTObTH-4" value="IdLugar" style="ellipse;whiteSpace=wrap;html=1;align=center;fontStyle=0;fillColor=#fff2cc;strokeColor=#d6b656;" vertex="1" parent="1">
          <mxGeometry x="-570" y="465" width="100" height="40" as="geometry" />
        </mxCell>
        <mxCell id="AEwHgf2TFvcNtozTObTH-5" value="" style="endArrow=none;html=1;rounded=0;entryX=0;entryY=0.5;entryDx=0;entryDy=0;exitX=0.5;exitY=0;exitDx=0;exitDy=0;startArrow=none;startFill=0;endFill=0;" edge="1" parent="1" source="AEwHgf2TFvcNtozTObTH-4">
          <mxGeometry width="50" height="50" relative="1" as="geometry">
            <mxPoint x="-140" y="280" as="sourcePoint" />
            <mxPoint x="-470" y="440" as="targetPoint" />
          </mxGeometry>
        </mxCell>
        <mxCell id="AEwHgf2TFvcNtozTObTH-10" value="" style="endArrow=none;html=1;rounded=0;entryX=0.25;entryY=1;entryDx=0;entryDy=0;exitX=0.57;exitY=0.05;exitDx=0;exitDy=0;startArrow=none;startFill=0;endFill=0;exitPerimeter=0;" edge="1" parent="1">
          <mxGeometry width="50" height="50" relative="1" as="geometry">
            <mxPoint x="-476" y="512" as="sourcePoint" />
            <mxPoint x="-445" y="460" as="targetPoint" />
          </mxGeometry>
        </mxCell>
        <mxCell id="AEwHgf2TFvcNtozTObTH-11" value="" style="endArrow=none;html=1;rounded=0;entryX=0.75;entryY=1;entryDx=0;entryDy=0;exitX=0.5;exitY=0;exitDx=0;exitDy=0;startArrow=none;startFill=0;endFill=0;" edge="1" parent="1">
          <mxGeometry width="50" height="50" relative="1" as="geometry">
            <mxPoint x="-380" y="520" as="sourcePoint" />
            <mxPoint x="-395" y="460" as="targetPoint" />
          </mxGeometry>
        </mxCell>
        <mxCell id="AEwHgf2TFvcNtozTObTH-12" value="" style="endArrow=none;html=1;rounded=0;entryX=1;entryY=1;entryDx=0;entryDy=0;exitX=0.5;exitY=0;exitDx=0;exitDy=0;startArrow=none;startFill=0;endFill=0;" edge="1" parent="1">
          <mxGeometry width="50" height="50" relative="1" as="geometry">
            <mxPoint x="-310" y="480" as="sourcePoint" />
            <mxPoint x="-370" y="460" as="targetPoint" />
          </mxGeometry>
        </mxCell>
        <mxCell id="AEwHgf2TFvcNtozTObTH-17" value="" style="endArrow=none;html=1;rounded=0;entryX=1;entryY=0.5;entryDx=0;entryDy=0;exitX=0;exitY=0.5;exitDx=0;exitDy=0;startArrow=none;startFill=0;endFill=0;shape=link;" edge="1" parent="1" source="THKwmLbEmkbz0ED7jqbm-32" target="THKwmLbEmkbz0ED7jqbm-70">
          <mxGeometry width="50" height="50" relative="1" as="geometry">
            <mxPoint x="-290" y="440" as="sourcePoint" />
            <mxPoint x="-340" y="440" as="targetPoint" />
          </mxGeometry>
        </mxCell>
        <mxCell id="38qkLVl_R3nKrv9sQ7IF-1" value="PrecioTotal" style="ellipse;whiteSpace=wrap;html=1;align=center;dashed=1;" vertex="1" parent="1">
          <mxGeometry x="-350" y="770" width="100" height="40" as="geometry" />
        </mxCell>
        <mxCell id="38qkLVl_R3nKrv9sQ7IF-2" value="&lt;b&gt;Cliente&lt;/b&gt;" style="whiteSpace=wrap;html=1;align=center;fillColor=#dae8fc;strokeColor=#6c8ebf;" vertex="1" parent="1">
          <mxGeometry x="10" y="860" width="100" height="40" as="geometry" />
        </mxCell>
        <mxCell id="38qkLVl_R3nKrv9sQ7IF-3" value="IdCliente" style="ellipse;whiteSpace=wrap;html=1;align=center;fontStyle=4;fillColor=#fff2cc;strokeColor=#d6b656;" vertex="1" parent="1">
          <mxGeometry x="10" y="920" width="100" height="40" as="geometry" />
        </mxCell>
        <mxCell id="38qkLVl_R3nKrv9sQ7IF-4" value="CompraEntrada" style="shape=rhombus;perimeter=rhombusPerimeter;whiteSpace=wrap;html=1;align=center;fillColor=#d5e8d4;strokeColor=#82b366;" vertex="1" parent="1">
          <mxGeometry x="-40" y="775" width="120" height="60" as="geometry" />
        </mxCell>
        <mxCell id="38qkLVl_R3nKrv9sQ7IF-5" value="#MedallasOro" style="ellipse;whiteSpace=wrap;html=1;align=center;dashed=1;" vertex="1" parent="1">
          <mxGeometry x="-533" y="510" width="100" height="40" as="geometry" />
        </mxCell>
        <mxCell id="38qkLVl_R3nKrv9sQ7IF-6" value="#MedallasPlata" style="ellipse;whiteSpace=wrap;html=1;align=center;dashed=1;" vertex="1" parent="1">
          <mxGeometry x="-430" y="520" width="100" height="40" as="geometry" />
        </mxCell>
        <mxCell id="38qkLVl_R3nKrv9sQ7IF-7" value="#MedallasBronce" style="ellipse;whiteSpace=wrap;html=1;align=center;dashed=1;" vertex="1" parent="1">
          <mxGeometry x="-350" y="480" width="100" height="40" as="geometry" />
        </mxCell>
        <mxCell id="mqlIWlBflpw1DdGnvb0F-5" style="edgeStyle=orthogonalEdgeStyle;rounded=0;orthogonalLoop=1;jettySize=auto;html=1;exitX=0.5;exitY=0;exitDx=0;exitDy=0;entryX=0.5;entryY=1;entryDx=0;entryDy=0;" edge="1" parent="1" source="RpCFNnG55zxHJHf3eyeN-1" target="THKwmLbEmkbz0ED7jqbm-10">
          <mxGeometry relative="1" as="geometry" />
        </mxCell>
        <mxCell id="RpCFNnG55zxHJHf3eyeN-1" value="Ser" style="shape=rhombus;double=1;perimeter=rhombusPerimeter;whiteSpace=wrap;html=1;align=center;fillColor=#d5e8d4;strokeColor=#82b366;" vertex="1" parent="1">
          <mxGeometry x="-500" y="270" width="120" height="60" as="geometry" />
        </mxCell>
        <mxCell id="6h2dfwqL-_PrOD55RoLr-1" value="Medallero" style="shape=ext;margin=3;double=1;whiteSpace=wrap;html=1;align=center;fillColor=#dae8fc;strokeColor=#6c8ebf;" vertex="1" parent="1">
          <mxGeometry x="-470" y="410" width="140" height="50" as="geometry" />
        </mxCell>
        <mxCell id="RpCFNnG55zxHJHf3eyeN-2" value="&lt;span style=&quot;border-bottom: 1px dotted&quot;&gt;IDMedallero&lt;/span&gt;" style="ellipse;whiteSpace=wrap;html=1;align=center;fillColor=#fff2cc;strokeColor=#d6b656;" vertex="1" parent="1">
          <mxGeometry x="-570" y="465" width="100" height="40" as="geometry" />
        </mxCell>
        <mxCell id="mqlIWlBflpw1DdGnvb0F-1" value="TotalMedallas" style="ellipse;whiteSpace=wrap;html=1;align=center;dashed=1;" vertex="1" parent="1">
          <mxGeometry x="-640" y="160" width="100" height="40" as="geometry" />
        </mxCell>
        <mxCell id="mqlIWlBflpw1DdGnvb0F-2" value="" style="endArrow=none;html=1;rounded=0;entryX=1;entryY=0.5;entryDx=0;entryDy=0;exitX=0;exitY=0.5;exitDx=0;exitDy=0;" edge="1" parent="1" source="THKwmLbEmkbz0ED7jqbm-10" target="mqlIWlBflpw1DdGnvb0F-1">
          <mxGeometry width="50" height="50" relative="1" as="geometry">
            <mxPoint x="-230" y="240" as="sourcePoint" />
            <mxPoint x="-180" y="190" as="targetPoint" />
          </mxGeometry>
        </mxCell>
        <mxCell id="mqlIWlBflpw1DdGnvb0F-3" value="" style="endArrow=none;html=1;rounded=0;exitX=0;exitY=0.5;exitDx=0;exitDy=0;" edge="1" parent="1">
          <mxGeometry width="50" height="50" relative="1" as="geometry">
            <mxPoint x="-290" y="370" as="sourcePoint" />
            <mxPoint x="-390" y="195.23809523809524" as="targetPoint" />
          </mxGeometry>
        </mxCell>
      </root>
    </mxGraphModel>
  </diagram>
</mxfile>
